<mxfile host="65bd71144e">
    <diagram id="YEHsHqbyUGrah8CGsGG-" name="Page-1">
        <mxGraphModel dx="1472" dy="962" grid="0" gridSize="10" guides="1" tooltips="1" connect="1" arrows="1" fold="1" page="1" pageScale="1" pageWidth="2000" pageHeight="1000" background="#000000" math="0" shadow="0">
            <root>
                <mxCell id="0"/>
                <mxCell id="1" parent="0"/>
                <mxCell id="86" style="edgeStyle=none;html=1;exitX=0.5;exitY=0;exitDx=0;exitDy=0;entryX=0.5;entryY=0;entryDx=0;entryDy=0;fillColor=#b1ddf0;strokeColor=#10739e;" edge="1" parent="1" source="2" target="36">
                    <mxGeometry relative="1" as="geometry">
                        <Array as="points">
                            <mxPoint x="955" y="121"/>
                            <mxPoint x="486" y="121"/>
                        </Array>
                    </mxGeometry>
                </mxCell>
                <mxCell id="89" style="edgeStyle=none;html=1;exitX=0;exitY=0;exitDx=0;exitDy=0;entryX=0.5;entryY=0;entryDx=0;entryDy=0;fontColor=#121212;fillColor=#b1ddf0;strokeColor=#10739e;" edge="1" parent="1" source="2" target="41">
                    <mxGeometry relative="1" as="geometry">
                        <Array as="points">
                            <mxPoint x="764" y="168"/>
                            <mxPoint x="764" y="372"/>
                            <mxPoint x="486" y="372"/>
                        </Array>
                    </mxGeometry>
                </mxCell>
                <mxCell id="102" style="edgeStyle=none;html=1;exitX=1;exitY=0;exitDx=0;exitDy=0;entryX=0;entryY=0;entryDx=0;entryDy=0;fontColor=#FFFFFF;fillColor=#b1ddf0;strokeColor=#10739e;" edge="1" parent="1" source="2" target="12">
                    <mxGeometry relative="1" as="geometry"/>
                </mxCell>
                <mxCell id="2" value="userData" style="swimlane;fontStyle=0;childLayout=stackLayout;horizontal=1;startSize=30;horizontalStack=0;resizeParent=1;resizeParentMax=0;resizeLast=0;collapsible=1;marginBottom=0;fontFamily=Helvetica;" parent="1" vertex="1">
                    <mxGeometry x="820" y="168" width="270" height="330" as="geometry"/>
                </mxCell>
                <mxCell id="3" value="userID    " style="text;strokeColor=none;fillColor=none;align=left;verticalAlign=middle;spacingLeft=4;spacingRight=4;overflow=hidden;points=[[0,0.5],[1,0.5]];portConstraint=eastwest;rotatable=0;" parent="2" vertex="1">
                    <mxGeometry y="30" width="270" height="30" as="geometry"/>
                </mxCell>
                <mxCell id="4" value="userName" style="text;strokeColor=none;fillColor=none;align=left;verticalAlign=middle;spacingLeft=4;spacingRight=4;overflow=hidden;points=[[0,0.5],[1,0.5]];portConstraint=eastwest;rotatable=0;" parent="2" vertex="1">
                    <mxGeometry y="60" width="270" height="30" as="geometry"/>
                </mxCell>
                <mxCell id="10" value="hashedPassword" style="text;strokeColor=none;fillColor=none;align=left;verticalAlign=middle;spacingLeft=4;spacingRight=4;overflow=hidden;points=[[0,0.5],[1,0.5]];portConstraint=eastwest;rotatable=0;fontFamily=Helvetica;" parent="2" vertex="1">
                    <mxGeometry y="90" width="270" height="30" as="geometry"/>
                </mxCell>
                <mxCell id="11" value="profileImageURL" style="text;strokeColor=none;fillColor=none;align=left;verticalAlign=middle;spacingLeft=4;spacingRight=4;overflow=hidden;points=[[0,0.5],[1,0.5]];portConstraint=eastwest;rotatable=0;fontFamily=Helvetica;" parent="2" vertex="1">
                    <mxGeometry y="120" width="270" height="30" as="geometry"/>
                </mxCell>
                <mxCell id="100" value="profileImageURL" style="text;strokeColor=none;fillColor=none;align=left;verticalAlign=middle;spacingLeft=4;spacingRight=4;overflow=hidden;points=[[0,0.5],[1,0.5]];portConstraint=eastwest;rotatable=0;fontFamily=Helvetica;" vertex="1" parent="2">
                    <mxGeometry y="150" width="270" height="30" as="geometry"/>
                </mxCell>
                <mxCell id="5" value="dateTimeCreated" style="text;strokeColor=none;fillColor=none;align=left;verticalAlign=middle;spacingLeft=4;spacingRight=4;overflow=hidden;points=[[0,0.5],[1,0.5]];portConstraint=eastwest;rotatable=0;" parent="2" vertex="1">
                    <mxGeometry y="180" width="270" height="30" as="geometry"/>
                </mxCell>
                <mxCell id="6" value="isAdmin" style="text;strokeColor=none;fillColor=none;align=left;verticalAlign=middle;spacingLeft=4;spacingRight=4;overflow=hidden;points=[[0,0.5],[1,0.5]];portConstraint=eastwest;rotatable=0;fontFamily=Helvetica;" parent="2" vertex="1">
                    <mxGeometry y="210" width="270" height="30" as="geometry"/>
                </mxCell>
                <mxCell id="7" value="isTeacher" style="text;strokeColor=none;fillColor=none;align=left;verticalAlign=middle;spacingLeft=4;spacingRight=4;overflow=hidden;points=[[0,0.5],[1,0.5]];portConstraint=eastwest;rotatable=0;fontFamily=Helvetica;" parent="2" vertex="1">
                    <mxGeometry y="240" width="270" height="30" as="geometry"/>
                </mxCell>
                <mxCell id="8" value="isStudent" style="text;strokeColor=none;fillColor=none;align=left;verticalAlign=middle;spacingLeft=4;spacingRight=4;overflow=hidden;points=[[0,0.5],[1,0.5]];portConstraint=eastwest;rotatable=0;fontFamily=Helvetica;" parent="2" vertex="1">
                    <mxGeometry y="270" width="270" height="30" as="geometry"/>
                </mxCell>
                <mxCell id="9" value="isAccountDeleted" style="text;strokeColor=none;fillColor=none;align=left;verticalAlign=middle;spacingLeft=4;spacingRight=4;overflow=hidden;points=[[0,0.5],[1,0.5]];portConstraint=eastwest;rotatable=0;fontFamily=Helvetica;" parent="2" vertex="1">
                    <mxGeometry y="300" width="270" height="30" as="geometry"/>
                </mxCell>
                <mxCell id="12" value="submissionData" style="swimlane;fontStyle=0;childLayout=stackLayout;horizontal=1;startSize=30;horizontalStack=0;resizeParent=1;resizeParentMax=0;resizeLast=0;collapsible=1;marginBottom=0;fontFamily=Helvetica;" parent="1" vertex="1">
                    <mxGeometry x="1215" y="168" width="265" height="360" as="geometry"/>
                </mxCell>
                <mxCell id="13" value="submissionID" style="text;strokeColor=none;fillColor=none;align=left;verticalAlign=middle;spacingLeft=4;spacingRight=4;overflow=hidden;points=[[0,0.5],[1,0.5]];portConstraint=eastwest;rotatable=0;fontFamily=Helvetica;" parent="12" vertex="1">
                    <mxGeometry y="30" width="265" height="30" as="geometry"/>
                </mxCell>
                <mxCell id="106" value="classRoomID" style="text;strokeColor=none;fillColor=none;align=left;verticalAlign=middle;spacingLeft=4;spacingRight=4;overflow=hidden;points=[[0,0.5],[1,0.5]];portConstraint=eastwest;rotatable=0;fontColor=#FFFFFF;" vertex="1" parent="12">
                    <mxGeometry y="60" width="265" height="30" as="geometry"/>
                </mxCell>
                <mxCell id="14" value="userID" style="text;strokeColor=none;fillColor=none;align=left;verticalAlign=middle;spacingLeft=4;spacingRight=4;overflow=hidden;points=[[0,0.5],[1,0.5]];portConstraint=eastwest;rotatable=0;fontFamily=Helvetica;" parent="12" vertex="1">
                    <mxGeometry y="90" width="265" height="30" as="geometry"/>
                </mxCell>
                <mxCell id="18" value="contentURI" style="text;strokeColor=none;fillColor=none;align=left;verticalAlign=middle;spacingLeft=4;spacingRight=4;overflow=hidden;points=[[0,0.5],[1,0.5]];portConstraint=eastwest;rotatable=0;fontFamily=Helvetica;" parent="12" vertex="1">
                    <mxGeometry y="120" width="265" height="30" as="geometry"/>
                </mxCell>
                <mxCell id="19" value="isPDF" style="text;strokeColor=none;fillColor=none;align=left;verticalAlign=middle;spacingLeft=4;spacingRight=4;overflow=hidden;points=[[0,0.5],[1,0.5]];portConstraint=eastwest;rotatable=0;fontFamily=Helvetica;" parent="12" vertex="1">
                    <mxGeometry y="150" width="265" height="30" as="geometry"/>
                </mxCell>
                <mxCell id="20" value="isVideo" style="text;strokeColor=none;fillColor=none;align=left;verticalAlign=middle;spacingLeft=4;spacingRight=4;overflow=hidden;points=[[0,0.5],[1,0.5]];portConstraint=eastwest;rotatable=0;fontFamily=Helvetica;" parent="12" vertex="1">
                    <mxGeometry y="180" width="265" height="30" as="geometry"/>
                </mxCell>
                <mxCell id="21" value="viewCount" style="text;strokeColor=none;fillColor=none;align=left;verticalAlign=middle;spacingLeft=4;spacingRight=4;overflow=hidden;points=[[0,0.5],[1,0.5]];portConstraint=eastwest;rotatable=0;fontFamily=Helvetica;" parent="12" vertex="1">
                    <mxGeometry y="210" width="265" height="30" as="geometry"/>
                </mxCell>
                <mxCell id="105" value="isVisibileByAll" style="text;strokeColor=none;fillColor=none;align=left;verticalAlign=middle;spacingLeft=4;spacingRight=4;overflow=hidden;points=[[0,0.5],[1,0.5]];portConstraint=eastwest;rotatable=0;fontFamily=Helvetica;" vertex="1" parent="12">
                    <mxGeometry y="240" width="265" height="30" as="geometry"/>
                </mxCell>
                <mxCell id="16" value="isVisibileByAll" style="text;strokeColor=none;fillColor=none;align=left;verticalAlign=middle;spacingLeft=4;spacingRight=4;overflow=hidden;points=[[0,0.5],[1,0.5]];portConstraint=eastwest;rotatable=0;fontFamily=Helvetica;" parent="12" vertex="1">
                    <mxGeometry y="270" width="265" height="30" as="geometry"/>
                </mxCell>
                <mxCell id="17" value="isOnlyVisibleByClass" style="text;strokeColor=none;fillColor=none;align=left;verticalAlign=middle;spacingLeft=4;spacingRight=4;overflow=hidden;points=[[0,0.5],[1,0.5]];portConstraint=eastwest;rotatable=0;fontFamily=Helvetica;" parent="12" vertex="1">
                    <mxGeometry y="300" width="265" height="30" as="geometry"/>
                </mxCell>
                <mxCell id="22" value="isSubmissionDeleted" style="text;strokeColor=none;fillColor=none;align=left;verticalAlign=middle;spacingLeft=4;spacingRight=4;overflow=hidden;points=[[0,0.5],[1,0.5]];portConstraint=eastwest;rotatable=0;fontFamily=Helvetica;" parent="12" vertex="1">
                    <mxGeometry y="330" width="265" height="30" as="geometry"/>
                </mxCell>
                <mxCell id="30" value="userRelationships" style="swimlane;fontStyle=0;childLayout=stackLayout;horizontal=1;startSize=30;horizontalStack=0;resizeParent=1;resizeParentMax=0;resizeLast=0;collapsible=1;marginBottom=0;fontFamily=Helvetica;" parent="1" vertex="1">
                    <mxGeometry x="839.5" y="552" width="231" height="180" as="geometry"/>
                </mxCell>
                <mxCell id="31" value="relationshipID" style="text;strokeColor=none;fillColor=none;align=left;verticalAlign=middle;spacingLeft=4;spacingRight=4;overflow=hidden;points=[[0,0.5],[1,0.5]];portConstraint=eastwest;rotatable=0;fontFamily=Helvetica;" parent="30" vertex="1">
                    <mxGeometry y="30" width="231" height="30" as="geometry"/>
                </mxCell>
                <mxCell id="33" value="teacherID" style="text;strokeColor=none;fillColor=none;align=left;verticalAlign=middle;spacingLeft=4;spacingRight=4;overflow=hidden;points=[[0,0.5],[1,0.5]];portConstraint=eastwest;rotatable=0;fontFamily=Helvetica;" parent="30" vertex="1">
                    <mxGeometry y="60" width="231" height="30" as="geometry"/>
                </mxCell>
                <mxCell id="34" value="studentID" style="text;strokeColor=none;fillColor=none;align=left;verticalAlign=middle;spacingLeft=4;spacingRight=4;overflow=hidden;points=[[0,0.5],[1,0.5]];portConstraint=eastwest;rotatable=0;fontFamily=Helvetica;" parent="30" vertex="1">
                    <mxGeometry y="90" width="231" height="30" as="geometry"/>
                </mxCell>
                <mxCell id="70" value="classRoomID" style="text;strokeColor=none;fillColor=none;align=left;verticalAlign=middle;spacingLeft=4;spacingRight=4;overflow=hidden;points=[[0,0.5],[1,0.5]];portConstraint=eastwest;rotatable=0;" vertex="1" parent="30">
                    <mxGeometry y="120" width="231" height="30" as="geometry"/>
                </mxCell>
                <mxCell id="32" value="isrRequestAccepted" style="text;strokeColor=none;fillColor=none;align=left;verticalAlign=middle;spacingLeft=4;spacingRight=4;overflow=hidden;points=[[0,0.5],[1,0.5]];portConstraint=eastwest;rotatable=0;fontFamily=Helvetica;" parent="30" vertex="1">
                    <mxGeometry y="150" width="231" height="30" as="geometry"/>
                </mxCell>
                <mxCell id="93" style="edgeStyle=none;html=1;exitX=1;exitY=0;exitDx=0;exitDy=0;entryX=0.25;entryY=0;entryDx=0;entryDy=0;fontColor=#FFFFFF;fillColor=#e51400;strokeColor=#B20000;" edge="1" parent="1" source="36" target="30">
                    <mxGeometry relative="1" as="geometry">
                        <Array as="points">
                            <mxPoint x="702" y="206"/>
                            <mxPoint x="707" y="494"/>
                            <mxPoint x="897" y="494"/>
                        </Array>
                    </mxGeometry>
                </mxCell>
                <mxCell id="117" style="edgeStyle=none;html=1;exitX=0;exitY=0;exitDx=0;exitDy=0;entryX=0;entryY=0.25;entryDx=0;entryDy=0;fontColor=#FFFFFF;fillColor=#e51400;strokeColor=#B20000;" edge="1" parent="1" source="36" target="78">
                    <mxGeometry relative="1" as="geometry">
                        <Array as="points">
                            <mxPoint x="279" y="206"/>
                            <mxPoint x="279" y="791"/>
                            <mxPoint x="1166" y="791"/>
                            <mxPoint x="1166" y="642"/>
                        </Array>
                    </mxGeometry>
                </mxCell>
                <mxCell id="36" value="teacherData" style="swimlane;fontStyle=0;childLayout=stackLayout;horizontal=1;startSize=30;horizontalStack=0;resizeParent=1;resizeParentMax=0;resizeLast=0;collapsible=1;marginBottom=0;fontFamily=Helvetica;" parent="1" vertex="1">
                    <mxGeometry x="367" y="206" width="238" height="150" as="geometry"/>
                </mxCell>
                <mxCell id="37" value="teacherID" style="text;strokeColor=none;fillColor=none;align=left;verticalAlign=middle;spacingLeft=4;spacingRight=4;overflow=hidden;points=[[0,0.5],[1,0.5]];portConstraint=eastwest;rotatable=0;fontFamily=Helvetica;" parent="36" vertex="1">
                    <mxGeometry y="30" width="238" height="30" as="geometry"/>
                </mxCell>
                <mxCell id="38" value="userID" style="text;strokeColor=none;fillColor=none;align=left;verticalAlign=middle;spacingLeft=4;spacingRight=4;overflow=hidden;points=[[0,0.5],[1,0.5]];portConstraint=eastwest;rotatable=0;fontFamily=Helvetica;" parent="36" vertex="1">
                    <mxGeometry y="60" width="238" height="30" as="geometry"/>
                </mxCell>
                <mxCell id="39" value=".........." style="text;strokeColor=none;fillColor=none;align=left;verticalAlign=middle;spacingLeft=4;spacingRight=4;overflow=hidden;points=[[0,0.5],[1,0.5]];portConstraint=eastwest;rotatable=0;fontFamily=Helvetica;" parent="36" vertex="1">
                    <mxGeometry y="90" width="238" height="30" as="geometry"/>
                </mxCell>
                <mxCell id="40" value="otherData" style="text;strokeColor=none;fillColor=none;align=left;verticalAlign=middle;spacingLeft=4;spacingRight=4;overflow=hidden;points=[[0,0.5],[1,0.5]];portConstraint=eastwest;rotatable=0;fontFamily=Helvetica;" parent="36" vertex="1">
                    <mxGeometry y="120" width="238" height="30" as="geometry"/>
                </mxCell>
                <mxCell id="90" style="edgeStyle=none;html=1;exitX=1;exitY=0;exitDx=0;exitDy=0;entryX=0;entryY=0;entryDx=0;entryDy=0;fontColor=#121212;fillColor=#e51400;strokeColor=#B20000;" edge="1" parent="1" source="41" target="30">
                    <mxGeometry relative="1" as="geometry">
                        <Array as="points">
                            <mxPoint x="667" y="412"/>
                            <mxPoint x="667" y="552"/>
                        </Array>
                    </mxGeometry>
                </mxCell>
                <mxCell id="41" value="studentData" style="swimlane;fontStyle=0;childLayout=stackLayout;horizontal=1;startSize=30;horizontalStack=0;resizeParent=1;resizeParentMax=0;resizeLast=0;collapsible=1;marginBottom=0;fontFamily=Helvetica;" parent="1" vertex="1">
                    <mxGeometry x="367" y="412" width="238" height="150" as="geometry"/>
                </mxCell>
                <mxCell id="42" value="studentID" style="text;strokeColor=none;fillColor=none;align=left;verticalAlign=middle;spacingLeft=4;spacingRight=4;overflow=hidden;points=[[0,0.5],[1,0.5]];portConstraint=eastwest;rotatable=0;fontFamily=Helvetica;" parent="41" vertex="1">
                    <mxGeometry y="30" width="238" height="30" as="geometry"/>
                </mxCell>
                <mxCell id="43" value="userID" style="text;strokeColor=none;fillColor=none;align=left;verticalAlign=middle;spacingLeft=4;spacingRight=4;overflow=hidden;points=[[0,0.5],[1,0.5]];portConstraint=eastwest;rotatable=0;fontFamily=Helvetica;" parent="41" vertex="1">
                    <mxGeometry y="60" width="238" height="30" as="geometry"/>
                </mxCell>
                <mxCell id="44" value=".........." style="text;strokeColor=none;fillColor=none;align=left;verticalAlign=middle;spacingLeft=4;spacingRight=4;overflow=hidden;points=[[0,0.5],[1,0.5]];portConstraint=eastwest;rotatable=0;fontFamily=Helvetica;" parent="41" vertex="1">
                    <mxGeometry y="90" width="238" height="30" as="geometry"/>
                </mxCell>
                <mxCell id="45" value="otherData" style="text;strokeColor=none;fillColor=none;align=left;verticalAlign=middle;spacingLeft=4;spacingRight=4;overflow=hidden;points=[[0,0.5],[1,0.5]];portConstraint=eastwest;rotatable=0;fontFamily=Helvetica;" parent="41" vertex="1">
                    <mxGeometry y="120" width="238" height="30" as="geometry"/>
                </mxCell>
                <mxCell id="109" style="edgeStyle=none;html=1;exitX=0;exitY=0;exitDx=0;exitDy=0;entryX=1;entryY=0;entryDx=0;entryDy=0;fontColor=#FFFFFF;fillColor=#e51400;strokeColor=#B20000;" edge="1" parent="1" source="78" target="30">
                    <mxGeometry relative="1" as="geometry">
                        <Array as="points">
                            <mxPoint x="1234" y="552"/>
                        </Array>
                    </mxGeometry>
                </mxCell>
                <mxCell id="113" style="edgeStyle=none;html=1;exitX=0.5;exitY=0;exitDx=0;exitDy=0;entryX=0.53;entryY=0.994;entryDx=0;entryDy=0;entryPerimeter=0;fontColor=#FFFFFF;fillColor=#e51400;strokeColor=#B20000;" edge="1" parent="1" source="78" target="22">
                    <mxGeometry relative="1" as="geometry"/>
                </mxCell>
                <mxCell id="78" value="classRoomData" style="swimlane;fontStyle=0;childLayout=stackLayout;horizontal=1;startSize=30;horizontalStack=0;resizeParent=1;resizeParentMax=0;resizeLast=0;collapsible=1;marginBottom=0;" vertex="1" parent="1">
                    <mxGeometry x="1234" y="612" width="246" height="120" as="geometry"/>
                </mxCell>
                <mxCell id="79" value="classRoomID" style="text;strokeColor=none;fillColor=none;align=left;verticalAlign=middle;spacingLeft=4;spacingRight=4;overflow=hidden;points=[[0,0.5],[1,0.5]];portConstraint=eastwest;rotatable=0;" vertex="1" parent="78">
                    <mxGeometry y="30" width="246" height="30" as="geometry"/>
                </mxCell>
                <mxCell id="80" value="teacherID" style="text;strokeColor=none;fillColor=none;align=left;verticalAlign=middle;spacingLeft=4;spacingRight=4;overflow=hidden;points=[[0,0.5],[1,0.5]];portConstraint=eastwest;rotatable=0;" vertex="1" parent="78">
                    <mxGeometry y="60" width="246" height="30" as="geometry"/>
                </mxCell>
                <mxCell id="81" value="numStudents" style="text;strokeColor=none;fillColor=none;align=left;verticalAlign=middle;spacingLeft=4;spacingRight=4;overflow=hidden;points=[[0,0.5],[1,0.5]];portConstraint=eastwest;rotatable=0;" vertex="1" parent="78">
                    <mxGeometry y="90" width="246" height="30" as="geometry"/>
                </mxCell>
                <mxCell id="91" value="O&lt;font color=&quot;#e3e3e3&quot;&gt;O&lt;/font&gt;" style="text;html=1;strokeColor=none;fillColor=none;align=center;verticalAlign=middle;whiteSpace=wrap;rounded=0;fontColor=#121212;" vertex="1" parent="1">
                    <mxGeometry x="599" y="416" width="60" height="30" as="geometry"/>
                </mxCell>
                <mxCell id="92" value="M&lt;font color=&quot;#ffffff&quot;&gt;M&lt;/font&gt;" style="text;html=1;strokeColor=none;fillColor=none;align=center;verticalAlign=middle;whiteSpace=wrap;rounded=0;fontColor=#121212;" vertex="1" parent="1">
                    <mxGeometry x="772" y="552" width="60" height="30" as="geometry"/>
                </mxCell>
                <mxCell id="94" value="O&lt;font color=&quot;#e3e3e3&quot;&gt;O&lt;/font&gt;" style="text;html=1;strokeColor=none;fillColor=none;align=center;verticalAlign=middle;whiteSpace=wrap;rounded=0;fontColor=#121212;" vertex="1" parent="1">
                    <mxGeometry x="605" y="206" width="60" height="30" as="geometry"/>
                </mxCell>
                <mxCell id="95" value="M&lt;font color=&quot;#ffffff&quot;&gt;M&lt;/font&gt;" style="text;html=1;strokeColor=none;fillColor=none;align=center;verticalAlign=middle;whiteSpace=wrap;rounded=0;fontColor=#121212;" vertex="1" parent="1">
                    <mxGeometry x="830" y="495" width="60" height="30" as="geometry"/>
                </mxCell>
                <mxCell id="96" value="O&lt;font color=&quot;#e3e3e3&quot;&gt;O&lt;/font&gt;" style="text;html=1;strokeColor=none;fillColor=none;align=center;verticalAlign=middle;whiteSpace=wrap;rounded=0;fontColor=#121212;" vertex="1" parent="1">
                    <mxGeometry x="890" y="126" width="60" height="30" as="geometry"/>
                </mxCell>
                <mxCell id="97" value="O&lt;font color=&quot;#e3e3e3&quot;&gt;O&lt;/font&gt;" style="text;html=1;strokeColor=none;fillColor=none;align=center;verticalAlign=middle;whiteSpace=wrap;rounded=0;fontColor=#121212;" vertex="1" parent="1">
                    <mxGeometry x="482" y="369" width="60" height="30" as="geometry"/>
                </mxCell>
                <mxCell id="98" value="O&lt;font color=&quot;#e3e3e3&quot;&gt;O&lt;/font&gt;" style="text;html=1;strokeColor=none;fillColor=none;align=center;verticalAlign=middle;whiteSpace=wrap;rounded=0;fontColor=#121212;" vertex="1" parent="1">
                    <mxGeometry x="463" y="159" width="60" height="30" as="geometry"/>
                </mxCell>
                <mxCell id="103" value="O&lt;font color=&quot;#e3e3e3&quot;&gt;O&lt;/font&gt;" style="text;html=1;strokeColor=none;fillColor=none;align=center;verticalAlign=middle;whiteSpace=wrap;rounded=0;fontColor=#121212;" vertex="1" parent="1">
                    <mxGeometry x="1042" y="141" width="60" height="30" as="geometry"/>
                </mxCell>
                <mxCell id="104" value="O&lt;font color=&quot;#e3e3e3&quot;&gt;O&lt;/font&gt;" style="text;html=1;strokeColor=none;fillColor=none;align=center;verticalAlign=middle;whiteSpace=wrap;rounded=0;fontColor=#121212;" vertex="1" parent="1">
                    <mxGeometry x="1165" y="138" width="60" height="30" as="geometry"/>
                </mxCell>
                <mxCell id="110" value="O&lt;font color=&quot;#e3e3e3&quot;&gt;O&lt;/font&gt;" style="text;html=1;strokeColor=none;fillColor=none;align=center;verticalAlign=middle;whiteSpace=wrap;rounded=0;fontColor=#121212;" vertex="1" parent="1">
                    <mxGeometry x="1215" y="587" width="60" height="30" as="geometry"/>
                </mxCell>
                <mxCell id="111" value="M&lt;font color=&quot;#ffffff&quot;&gt;M&lt;/font&gt;" style="text;html=1;strokeColor=none;fillColor=none;align=center;verticalAlign=middle;whiteSpace=wrap;rounded=0;fontColor=#121212;" vertex="1" parent="1">
                    <mxGeometry x="1062" y="552" width="60" height="30" as="geometry"/>
                </mxCell>
                <mxCell id="114" value="O&lt;font color=&quot;#e3e3e3&quot;&gt;O&lt;/font&gt;" style="text;html=1;strokeColor=none;fillColor=none;align=center;verticalAlign=middle;whiteSpace=wrap;rounded=0;fontColor=#121212;" vertex="1" parent="1">
                    <mxGeometry x="1338" y="587" width="60" height="30" as="geometry"/>
                </mxCell>
                <mxCell id="115" value="M&lt;font color=&quot;#ffffff&quot;&gt;M&lt;/font&gt;" style="text;html=1;strokeColor=none;fillColor=none;align=center;verticalAlign=middle;whiteSpace=wrap;rounded=0;fontColor=#121212;" vertex="1" parent="1">
                    <mxGeometry x="1338" y="532" width="60" height="30" as="geometry"/>
                </mxCell>
                <mxCell id="119" value="O&lt;font color=&quot;#e3e3e3&quot;&gt;O&lt;/font&gt;" style="text;html=1;strokeColor=none;fillColor=none;align=center;verticalAlign=middle;whiteSpace=wrap;rounded=0;fontColor=#121212;" vertex="1" parent="1">
                    <mxGeometry x="316" y="176" width="60" height="30" as="geometry"/>
                </mxCell>
                <mxCell id="120" value="M&lt;font color=&quot;#ffffff&quot;&gt;M&lt;/font&gt;" style="text;html=1;strokeColor=none;fillColor=none;align=center;verticalAlign=middle;whiteSpace=wrap;rounded=0;fontColor=#121212;" vertex="1" parent="1">
                    <mxGeometry x="1174" y="641" width="60" height="30" as="geometry"/>
                </mxCell>
            </root>
        </mxGraphModel>
    </diagram>
</mxfile>